<?xml version="1.0" encoding="UTF-8"?>
<svg width="86px" height="129px" viewBox="0 0 86 129" version="1.1" xmlns="http://www.w3.org/2000/svg" xmlns:xlink="http://www.w3.org/1999/xlink">
    <!-- Generator: Sketch 49.1 (51147) - http://www.bohemiancoding.com/sketch -->
    <title>Katono logo</title>
    <defs></defs>
    <g id="Page-1" stroke="none" stroke-width="1" fill="none" fill-rule="evenodd">
        <g id="katono-logo" transform="translate(0.000000, -3.000000)">
            <rect id="backgroundrect" opacity="0" x="0" y="3" width="85.3636369" height="128.909095"></rect>
            <g id="Layer-1" transform="translate(3.000000, 0.000000)" stroke="#000000">
                <ellipse id="svg_56" stroke-opacity="0" stroke-width="2.5" fill="#000000" fill-rule="nonzero" cx="19.1949185" cy="26.3588257" rx="18.6448078" ry="18.6448097"></ellipse>
                <path d="M1.5119424,48.394128 C1.2134504,48.394128 1.5119424,48.394128 2.7059424,48.394128 C5.9894204,48.394128 11.3623754,48.394128 18.8248384,48.394128 C27.4813024,48.394128 36.7347504,48.394128 45.3911834,48.394128 C51.3611544,48.394128 60.3161104,48.394128 65.0920804,48.394128 C69.2710354,48.394128 72.6682824,48.83266 75.2410064,49.686547 C76.8223054,50.211373 78.3151644,50.940427 78.8229764,51.625173 C78.9638154,51.815086 79.1214684,52.055976 79.1214684,52.055976 C77.9274984,52.27138 72.8530054,52.486784 70.4650354,52.486784 C63.8980794,52.486784 54.9431234,52.486784 46.2866904,52.486784 C40.0182274,52.486784 33.4405294,52.445256 26.8842854,53.348395 C22.3991174,53.966237 19.4427264,54.212687 17.0338524,55.287021 C16.3156824,55.607317 16.7399074,56.348219 18.2278524,56.57944 C29.9075094,58.394373 38.8250814,58.940621 46.8836754,59.379666 C54.6454554,59.802535 55.8964624,59.292899 60.3161094,59.810474 C61.2478414,59.919583 61.2990194,59.873578 61.5100794,60.025884 C61.7211394,60.178189 61.2871794,60.321267 60.0175864,60.887489 C57.1786884,62.153597 51.8747944,63.328974 45.9881674,65.195549 C38.4099204,67.598517 34.2912374,69.652787 33.7497644,69.934406 C31.3525474,71.181234 31.3617644,71.873026 31.3617644,72.519244 C31.3617644,74.027056 31.8003024,77.671831 33.7497644,86.305018 C36.3229454,97.700388 38.2272124,110.860931 39.7197044,119.046243 L41.2121974,128.093149" id="svg_38" stroke-width="2.5" transform="translate(40.262876, 88.243638) rotate(-0.584194) translate(-40.262876, -88.243638) "></path>
                <text id="K" stroke-opacity="0" stroke-width="2.77826361" fill="#000000" transform="translate(44.913461, 33.020011) rotate(178.944871) translate(-44.913461, -33.020011) " font-family="Courier" font-size="59" font-weight="normal">
                    <tspan x="15.3975946" y="56.5780401">K</tspan>
                </text>
            </g>
        </g>
    </g>
</svg>