<svg width="580" height="400" xmlns="http://www.w3.org/2000/svg">
 <!-- Created with Method Draw - http://github.com/duopixel/Method-Draw/ -->
 <g>
  <title>background</title>
  <rect fill="#ffffff" id="canvas_background" height="402" width="582" y="-1" x="-1"/>
  <g display="none" overflow="visible" y="0" x="0" height="100%" width="100%" id="canvasGrid">
   <rect fill="url(#gridpattern)" stroke-width="0" y="0" x="0" height="100%" width="100%"/>
  </g>
 </g>
 <g>
  <title>Layer 1</title>
  <path transform="rotate(-0.5841936469078064 315.4588012695323,158.65180969238395) " stroke="#000" d="m276.707842,118.802288c-0.298492,0 0,0 1.194,0c3.283478,0 8.656433,0 16.118896,0c8.656464,0 17.909912,0 26.566345,0c5.969971,0 14.924927,0 19.700897,0c4.178955,0 7.576202,0.438532 10.148926,1.292419c1.581299,0.524826 3.074158,1.25388 3.58197,1.938626c0.140839,0.189913 0.298492,0.430803 0.298492,0.430803c-1.19397,0.215404 -6.268463,0.430808 -8.656433,0.430808c-6.566956,0 -15.521912,0 -24.178345,0c-6.268463,0 -12.846161,-0.041528 -19.402405,0.861611c-4.485168,0.617842 -7.441559,0.864292 -9.850433,1.938626c-0.71817,0.320296 -0.293945,1.061198 1.194,1.292419c11.679657,1.814933 20.597229,2.361181 28.655823,2.800226c7.76178,0.422869 9.012787,-0.086767 13.432434,0.430808c0.931732,0.109109 0.98291,0.063104 1.19397,0.21541c0.21106,0.152305 -0.2229,0.295383 -1.492493,0.861605c-2.838898,1.266108 -8.142792,2.441485 -14.029419,4.30806c-7.578247,2.402968 -11.69693,4.457238 -12.238403,4.738857c-2.397217,1.246828 -2.388,1.93862 -2.388,2.584838c0,1.507812 0.438538,5.152587 2.388,13.785774c2.573181,11.39537 4.477448,24.555913 5.96994,32.741225l1.492493,9.046906" id="svg_38" fill-opacity="null" stroke-opacity="null" stroke-width="2.5" fill="none"/>
  <text font-weight="normal" stroke="#000" transform="rotate(178.92982482910156 329.61767578125,94.67892456054688) matrix(2.9174627138614966,0,0,2.9555407772146673,-672.4697324304097,-220.90671229977085) " xml:space="preserve" text-anchor="start" font-family="'Courier New', Courier, monospace" font-size="24" id="svg_42" y="113.138281" x="336.281447" fill-opacity="null" stroke-opacity="null" stroke-width="0" fill="#000000">K</text>
  <ellipse stroke="#000" ry="19.402385" rx="19.402383" id="svg_56" cy="96.116425" cx="292.528251" stroke-opacity="null" stroke-width="2.5" fill="#000000"/>
 </g>
</svg>