<svg xmlns="http://www.w3.org/2000/svg" width="85.36363687594076" height="128.909095007526" style=""><rect id="backgroundrect" width="100%" height="100%" x="0" y="0" fill="none" stroke="none" class="" style=""/>
 <!-- Created with Method Draw - http://github.com/duopixel/Method-Draw/ -->
 <g style="">
  <title>background</title>
  <rect fill="#ffffff" id="canvas_background" height="402" width="582" y="0" x="0" class=""/>
  <g display="none" overflow="visible" y="0" x="0" height="100%" width="100%" id="canvasGrid" class="">
   <rect fill="url(#gridpattern)" stroke-width="0" y="1" x="1" height="771.2396696006147" width="275.20661192850224" id="svg_1"/>
  </g>
 </g>
 <g style="" class="currentLayer">
  <title>Layer 1</title>
  <ellipse stroke="#000" ry="18.64480972290039" rx="18.644807815551758" id="svg_56" cy="23.35882568359375" cx="22.194918513298035" stroke-opacity="null" stroke-width="2.5" fill="#000000" class=""/><path transform="rotate(-0.5841936469078064 44.36789321899393,86.6517944335938) " stroke="#000" d="m5.6169328765793125,46.80227274121091 c-0.2984920000000003,0 0,0 1.194,0 c3.283478,0 8.656433,0 16.118896,0 c8.656464,0 17.909912,0 26.566345,0 c5.969971,0 14.924927,0 19.700897,0 c4.178955,0 7.576202,0.4385320000000003 10.148926,1.292419 c1.581299,0.524826 3.074158,1.25388 3.58197,1.9386260000000002 c0.14083900000000016,0.18991300000000036 0.2984920000000003,0.4308030000000003 0.2984920000000003,0.4308030000000003 c-1.19397,0.21540400000000026 -6.268463,0.43080800000000047 -8.656433,0.43080800000000047 c-6.566956,0 -15.521912,0 -24.178345,0 c-6.268463,0 -12.846161,-0.04152800000000005 -19.402405,0.8616110000000008 c-4.485168,0.6178420000000007 -7.441559,0.8642920000000006 -9.850433,1.9386260000000002 c-0.7181700000000006,0.320296 -0.293945,1.061198 1.194,1.292419 c11.679657,1.814933 20.597229,2.361181 28.655823,2.800226 c7.76178,0.42286900000000033 9.012787,-0.08676700000000014 13.432434,0.43080800000000047 c0.931732,0.10910900000000008 0.98291,0.06310400000000012 1.19397,0.21541000000000027 c0.21106000000000016,0.15230500000000016 -0.22290000000000026,0.2953830000000004 -1.492493,0.861605000000001 c-2.8388980000000004,1.266108 -8.142792,2.441485 -14.029419,4.30806 c-7.578247,2.402968 -11.69693,4.457238 -12.238403,4.738857 c-2.397217,1.246828 -2.388,1.9386200000000002 -2.388,2.584838 c0,1.507812 0.4385380000000003,5.1525870000000005 2.388,13.785774 c2.573181,11.39537 4.477448,24.555913 5.96994,32.741225 l1.492493,9.046906 " id="svg_38" fill-opacity="null" stroke-opacity="null" stroke-width="2.5" fill="none" class=""/><text font-weight="normal" stroke="#000" transform="rotate(178.92982482910156 59.42692184448242,21.66054916381836) matrix(2.797866420000374,0,0,2.7585215080140233,-643.6463057770854,-228.02874850073997) " xml:space="preserve" text-anchor="start" font-family="'Courier New', Courier, monospace" font-size="24" id="svg_42" y="96.88863838485375" x="244.10900241787434" fill-opacity="null" stroke-opacity="null" stroke-width="0" fill="#000000" class="">K</text>
  
  
 </g>
</svg>